<svg xmlns="http://www.w3.org/2000/svg" width="15.66" height="21.431" viewBox="0 0 15.66 21.431">
  <path id="Combined_shape_363" data-name="Combined shape 363" d="M11.388,21.431H4.27A4.155,4.155,0,0,1,0,17.412V14.734a4.04,4.04,0,0,1,2.881-3.783A6.892,6.892,0,0,1,1.423,6.7,6.564,6.564,0,0,1,7.829,0a6.564,6.564,0,0,1,6.406,6.7,6.891,6.891,0,0,1-1.458,4.254,4.042,4.042,0,0,1,2.883,3.783v2.678A4.156,4.156,0,0,1,11.388,21.431ZM4.111,12.143a3.127,3.127,0,0,0-2.688,2.924v2.01a3.285,3.285,0,0,0,3.5,3.013h5.823a3.284,3.284,0,0,0,3.494-3.013v-2.01a3.127,3.127,0,0,0-2.687-2.924,6.154,6.154,0,0,1-7.437,0ZM7.829,1.34A5.186,5.186,0,0,0,2.847,6.7a5.186,5.186,0,0,0,4.982,5.357A5.186,5.186,0,0,0,12.813,6.7,5.186,5.186,0,0,0,7.829,1.34Z" fill="#de6834" opacity="0.996"/>
</svg>
