<svg id="Component_1_1" data-name="Component 1 – 1" xmlns="http://www.w3.org/2000/svg" width="49" height="49" viewBox="0 0 49 49">
  <circle id="Ellipse_133" data-name="Ellipse 133" cx="24.5" cy="24.5" r="24.5" fill="#de6834"/>
  <g id="noun_send_1316570" transform="translate(16.474 14.759)">
    <g id="Group_158" data-name="Group 158" transform="translate(0 0)">
      <path id="Path_731" data-name="Path 731" d="M30.952,26.686c-1.38-.22-2.729-.471-4.046-.69l-6.681-1.129c-.345-.063-.69-.125-1.066-.188-.125-.031-.188-.063-.22-.188-.878-2.353-1.757-4.674-2.6-7.026a.975.975,0,0,1,.22-1.066,1.183,1.183,0,0,1,1.223-.314,1.919,1.919,0,0,1,.376.157q9.269,4.8,18.57,9.442a1.111,1.111,0,0,1,.69,1.286,1.016,1.016,0,0,1-.565.627c-2.98,1.474-5.928,2.98-8.908,4.486-3.325,1.662-6.65,3.356-9.975,5.019a1.066,1.066,0,0,1-1.6-.533,1.127,1.127,0,0,1,.031-.784c.847-2.29,1.725-4.58,2.572-6.87a.312.312,0,0,1,.251-.188C23.11,28.1,27,27.439,30.889,26.78,30.858,26.749,30.858,26.749,30.952,26.686Z" transform="translate(-16.259 -16.031)" fill="#fff"/>
    </g>
  </g>
</svg>
