<svg xmlns="http://www.w3.org/2000/svg" width="16.53" height="27.55" viewBox="0 0 16.53 27.55">
  <path id="Icon" d="M1,6.166C1,3.313,3.775,1,7.2,1s6.2,2.313,6.2,5.166v15.5c0,1.9-1.85,3.443-4.132,3.443s-4.132-1.542-4.132-3.443V7.888H7.2V21.662a1.918,1.918,0,0,0,2.066,1.722,1.918,1.918,0,0,0,2.066-1.722V6.166c0-1.9-1.85-3.444-4.132-3.444S3.066,4.264,3.066,6.166v15.5c0,2.853,2.775,5.166,6.2,5.166s6.2-2.313,6.2-5.166V4.444H17.53V22.523c-.509,3.4-4.051,6.027-8.265,6.027S1.509,25.92,1,22.523Z" transform="translate(-1 -1)" opacity="0.4"/>
</svg>
